<?xml version="1.0" standalone="no"?>
<!DOCTYPE svg PUBLIC "-//W3C//DTD SVG 20010904//EN"
 "http://www.w3.org/TR/2001/REC-SVG-20010904/DTD/svg10.dtd">
<svg version="1.0" xmlns="http://www.w3.org/2000/svg"
 width="512.000000pt" height="512.000000pt" viewBox="0 0 512.000000 512.000000"
 preserveAspectRatio="xMidYMid meet">

<g transform="translate(0.000000,512.000000) scale(0.100000,-0.100000)"
fill="#000000" stroke="none">
<path d="M2395 4783 c-88 -8 -264 -46 -364 -79 -603 -201 -1040 -723 -1135
-1356 -14 -90 -16 -95 -61 -142 -91 -94 -138 -243 -116 -367 16 -94 71 -198
134 -255 80 -73 163 -107 269 -112 l87 -4 16 -77 c50 -221 157 -433 308 -611
31 -35 54 -67 51 -71 -2 -4 -24 -10 -49 -13 -117 -18 -297 -99 -415 -187 -229
-170 -375 -410 -425 -696 -33 -187 -14 -285 69 -369 92 -91 -64 -84 1796 -84
1860 0 1704 -7 1796 85 71 71 89 131 80 266 -9 137 -46 274 -111 404 -114 231
-277 391 -509 501 -91 43 -220 84 -263 84 -13 0 -23 3 -23 6 0 3 30 40 66 82
36 43 91 116 122 165 l56 87 46 0 c162 0 320 105 394 260 26 56 31 79 34 165
l4 100 38 40 c83 88 120 181 120 302 0 121 -36 208 -125 303 -37 39 -44 53
-50 105 -76 668 -582 1246 -1243 1419 -180 47 -408 66 -597 49z m445 -292
c471 -95 864 -416 1052 -861 35 -81 68 -186 83 -257 7 -33 6 -33 -33 -33 -40
0 -40 0 -52 53 -71 297 -259 583 -509 773 -103 78 -313 184 -433 218 -475 136
-976 15 -1329 -322 -191 -181 -330 -421 -389 -669 -12 -53 -12 -53 -52 -53
-39 0 -40 0 -33 33 57 264 199 523 395 717 232 231 520 374 850 420 97 13 340
3 450 -19z m-22 -300 c325 -81 591 -291 738 -584 40 -79 99 -236 91 -243 -6
-6 -124 25 -188 49 -75 28 -205 93 -213 105 -3 5 13 26 34 47 50 49 66 92 50
140 -16 47 -53 75 -102 75 -53 0 -70 -10 -163 -100 -131 -125 -275 -214 -443
-270 -165 -55 -221 -60 -708 -60 -246 0 -444 4 -444 9 0 25 55 172 94 248 162
323 470 545 834 603 93 15 325 4 420 -19z m297 -876 c150 -89 361 -164 513
-182 l54 -6 -5 -301 c-3 -177 -9 -320 -16 -346 -6 -25 -21 -78 -33 -117 l-21
-73 -322 0 -321 0 -17 35 c-23 49 -92 121 -145 152 -60 36 -140 53 -248 53
-177 0 -267 -31 -352 -124 -72 -79 -95 -146 -90 -256 5 -103 28 -159 92 -228
25 -27 71 -62 103 -78 58 -29 59 -29 238 -29 171 0 182 1 230 25 63 31 146
112 170 168 l19 42 248 0 c136 0 248 -4 248 -8 0 -17 -117 -142 -187 -201
-438 -364 -1089 -337 -1495 63 -125 123 -213 260 -272 426 -53 145 -58 186
-63 493 l-5 287 464 0 c525 0 570 4 771 71 117 38 259 105 327 153 19 14 36
25 37 26 1 0 36 -20 78 -45z m-1925 -406 l0 -201 -55 4 c-67 6 -119 42 -152
108 -56 109 5 244 124 276 90 24 83 40 83 -187z m2810 190 c127 -27 195 -166
138 -279 -35 -68 -86 -103 -158 -108 l-60 -4 0 201 c0 225 -7 209 80 190z m-8
-659 c-6 -45 -49 -104 -93 -129 -29 -17 -41 -20 -37 -10 3 8 13 49 23 92 l17
78 47 -3 c43 -3 46 -5 43 -28z m-1274 -193 c42 -40 57 -98 37 -137 -29 -55
-67 -70 -183 -70 -76 0 -113 4 -138 16 -84 40 -85 166 -2 208 26 13 56 16 145
14 107 -3 113 -4 141 -31z m-727 -801 c89 -41 207 -79 320 -103 118 -25 380
-24 504 1 102 21 265 75 339 113 49 25 54 25 201 20 158 -5 237 -22 349 -71
220 -98 400 -308 465 -546 27 -98 38 -224 21 -245 -11 -13 -193 -15 -1630 -15
-1437 0 -1619 2 -1630 15 -9 11 -11 37 -6 93 32 383 323 697 704 762 26 4 101
8 168 9 118 1 123 0 195 -33z"/>
</g>
</svg>
